<svg width="100" height="100"><g fill="#aaa"><path xmlns="http://www.w3.org/2000/svg" d="M75.292 57.024c.928 1.973 1.857 3.947 2.67 6.036 1.74 4.063 3.134 8.241 3.83 12.652.464 2.67.58 5.34-.232 8.01-.813 2.785-2.902 4.294-5.804 4.294-2.67 0-4.991-.928-7.313-2.089-1.973-1.045-3.946-2.321-5.92-3.598-.812-.58-1.509-.697-2.553-.349-3.134 1.161-6.617-1.973-6.152-5.223.232-1.393.116-1.625-1.161-2.554-.116.232-.348.465-.464.697-2.786 4.062-5.804 8.01-9.287 11.491-2.205 2.09-4.527 4.18-7.313 5.456-1.392.58-2.785 1.045-4.294.929-2.322-.116-3.83-1.51-4.76-3.367-1.044-1.973-1.392-4.178-1.625-6.384-.464-6.152.465-12.072 1.858-17.992.116-.464.232-.928.348-1.509-.232 0-.464-.116-.697-.116-5.455-.232-10.91-.928-16.25-2.437-2.438-.697-4.76-1.626-6.849-3.135-.58-.464-1.16-.928-1.625-1.392C-.274 54.238-.506 51.8.886 49.247c1.277-2.206 3.135-3.83 5.224-5.224 1.973-1.277 4.063-2.437 6.152-3.598.464-.232.58-.464.696-1.045.117-1.973 1.045-3.366 2.902-4.179 1.858-.812 3.599-.58 5.108.697.58.464 1.044.58 1.74.348.35-.232.813-.348 1.278-.348.464-.116.58-.348.348-.813-1.857-3.714-3.482-7.545-4.76-11.607-1.044-3.25-1.856-6.617-1.972-10.1 0-1.508.116-3.017.58-4.41.929-3.134 3.598-4.76 6.965-4.295 3.482.464 6.5 2.09 9.518 3.83 4.295 2.67 8.01 5.92 11.724 9.287l.696.696c1.045-1.393 1.973-2.786 3.018-4.178 2.67-3.599 5.572-6.965 8.938-9.867 1.973-1.625 3.947-3.134 6.384-3.947 1.045-.348 2.09-.58 3.134-.464 3.018.116 4.527 2.206 5.456 4.76.813 2.32 1.045 4.642 1.045 7.08 0 1.857-.116 3.714-.232 5.456 0 .232.232.58.464.696 1.16.696 1.857 1.741 2.205 3.018.697 2.554-.928 5.223-3.482 5.92-.58.116-.929.348-.929.929 0 .232-.116.464-.232.696-.232.696-.116.696.58.696 4.644.233 9.17.697 13.698 1.742 3.134.696 6.152 1.74 8.938 3.482 1.509.929 2.785 2.09 3.482 3.714.696 1.742.58 3.367-.348 4.992-1.161 2.09-2.786 3.714-4.643 5.107-3.715 2.786-7.894 4.76-12.305 6.384-2.321.697-4.643 1.51-6.964 2.322zM19.69 11.406c.116 1.973.464 3.83 1.045 5.687 1.625 5.804 4.178 11.26 6.964 16.715.232.465.58.465 1.045.349 3.25-.813 6.616-1.51 9.866-2.322.349-.116.697-.348.813-.696 1.741-3.134 3.482-6.268 5.34-9.403.232-.464.232-.696-.117-1.044-2.321-2.206-4.527-4.411-6.848-6.5-2.786-2.438-5.572-4.644-8.938-6.385-1.625-.812-3.134-1.509-4.991-1.625-1.741-.116-3.018.697-3.599 2.206-.348 1.044-.464 1.973-.58 3.018zm53.976 21.126h-1.393c-.464 0-.58.232-.813.58-1.16 3.482-2.205 6.965-3.366 10.447-.116.464-.116.812.116 1.277 1.625 2.786 3.366 5.572 4.991 8.357.349.58.58.697 1.161.465 3.483-1.161 6.965-2.206 10.447-3.483s6.849-2.902 9.867-5.107a11.492 11.492 0 0 0 2.902-2.902c.928-1.625.812-3.134-.465-4.41-.232-.233-.58-.465-.812-.697-1.51-1.045-3.25-1.742-4.992-2.206-5.92-1.741-11.723-2.09-17.643-2.321zM27.468 82.677c0 .696.116 1.857.232 3.134.232 1.277.58 2.554 1.393 3.598.813 1.045 1.857 1.393 3.018 1.277 1.51-.116 2.786-.928 3.947-1.74 2.437-1.742 4.527-4.064 6.384-6.27 2.786-3.365 5.223-6.964 7.661-10.678.232-.348.232-.58 0-.813-2.321-2.67-4.759-5.34-7.08-7.893a1.254 1.254 0 0 0-.813-.348c-3.599.116-7.08.232-10.68.348-.58 0-.928.116-1.044.697l-1.393 5.571c-.928 4.179-1.509 8.358-1.625 13.117zm52.583-1.51c-.116-2.32-.464-4.294-1.045-6.267-1.625-5.804-4.178-11.26-6.964-16.483-.232-.348-.465-.348-.813-.348-3.366.812-6.732 1.509-10.099 2.321-.232.116-.58.232-.696.464-1.857 3.25-3.598 6.5-5.456 9.635-.232.348-.116.58.116.812l1.045 1.045c.232.348.58.348.929.232.58-.232 1.16-.348 1.74-.464 2.555-.232 5.805 2.554 4.76 6.036-.232.696 0 1.16.464 1.509 1.51 1.045 2.902 2.09 4.295 3.134 1.974 1.393 4.179 2.438 6.5 3.018 2.554.58 4.411-.58 4.876-3.134.348-.58.348-1.16.348-1.51zM25.843 59.695H27.7c.348 0 .58-.116.58-.465l3.483-10.795c.116-.232 0-.58-.116-.812-1.741-3.018-3.482-5.92-5.224-8.938-.232-.349-.348-.349-.696-.349-.697.233-1.393.349-2.09.58-.58.117-1.044.465-1.044 1.162-.116 1.16-.697 2.089-1.51 2.785-1.972 1.626-4.526 1.626-6.5-.116-.232-.232-.464-.464-.928-.232-2.902 1.277-5.688 2.554-8.242 4.411-1.276.929-2.321 1.857-3.134 3.25-.928 1.625-.696 3.134.58 4.411.581.58 1.278 1.045 1.858 1.393 1.857 1.045 3.947 1.625 6.152 2.09 4.991 1.16 9.983 1.393 14.974 1.625zm39.698-30.76c0 .115 0 .115 0 0 1.045.115 1.974 0 2.902.115.349 0 .58-.116.58-.464.117-.696.349-1.277.581-1.973.116-.465 0-.697-.348-1.045-2.902-2.322-1.973-7.197 1.741-8.241.464-.117.58-.349.696-.813.349-3.134.697-6.268.349-9.402-.116-1.51-.465-2.902-1.277-4.179-.813-1.16-1.973-1.741-3.366-1.509a7.658 7.658 0 0 0-3.134 1.393c-1.974 1.277-3.599 2.902-5.108 4.527-3.714 3.947-6.732 8.357-9.634 12.884-.232.349-.116.58.116.93 2.205 2.437 4.295 4.758 6.384 7.196.58.696 1.16 1.045 2.09.928 2.553-.116 4.99-.232 7.428-.348zM44.647 58.996c1.51-.232 3.018-.348 4.411-.464 2.902-.348 5.804-.813 8.706-1.16.465 0 .697-.233.813-.581 1.74-3.83 3.366-7.661 5.107-11.608.116-.232 0-.696-.116-.929-.58-.928-1.16-1.857-1.857-2.67a269.89 269.89 0 0 1-5.108-7.08c-.58-.929-1.392-1.277-2.553-1.16-1.974.231-4.063.463-6.036.696-1.858.232-3.599.58-5.456.812-.464.116-.812.116-1.045.58a504.576 504.576 0 0 0-5.107 11.608c-.116.232-.116.697.116.813 2.554 3.598 5.224 7.08 7.777 10.679-.116.348.232.464.348.464zM34.433 51.8c-.929 2.67-1.741 5.224-2.67 8.01 2.786-.116 5.456-.232 8.241-.348-1.973-2.67-3.714-5.108-5.571-7.662zm30.992-11.375c.929-2.67 1.741-5.224 2.67-7.893-2.786.116-5.456.232-8.241.348 1.857 2.554 3.714 4.991 5.571 7.545zM52.31 68.399a138.744 138.744 0 0 1 3.946-7.08c-3.134.464-6.036.812-9.054 1.16 1.625 1.974 3.366 3.947 5.108 5.92zm-4.876-44.573a138.744 138.744 0 0 1-3.946 7.08c3.134-.348 6.036-.812 9.054-1.16-1.625-1.974-3.25-3.947-5.108-5.92zM36.986 35.898h-.348L30.37 37.29c-.464.116-.58.232-.348.696 1.044 1.741 2.205 3.599 3.25 5.34l.348.348c1.161-2.554 2.206-5.107 3.366-7.777zm29.252 12.536-3.482 8.01c2.437-.58 4.875-1.045 7.312-1.626-1.276-2.205-2.553-4.294-3.83-6.384z"/><path xmlns="http://www.w3.org/2000/svg" d="M41.862 46.113c0-4.411 3.598-8.01 8.009-8.01 4.527 0 8.125 3.599 8.125 8.126s-3.482 8.009-8.009 8.009c-4.991 0-8.125-3.83-8.125-8.125z"/></g></svg>